<mxfile host="app.diagrams.net" modified="2021-06-18T10:32:56.639Z" agent="5.0 (Macintosh; Intel Mac OS X 10_15_7) AppleWebKit/537.36 (KHTML, like Gecko) Chrome/91.0.4472.106 Safari/537.36" etag="R0BKG5tlW0xBMIjduaSW" version="14.7.10" type="github">
  <diagram id="U8yK6cQryB4MRYCS27Vf" name="Page-1">
    <mxGraphModel dx="2066" dy="11067" grid="1" gridSize="10" guides="1" tooltips="1" connect="1" arrows="1" fold="1" page="1" pageScale="1" pageWidth="10000" pageHeight="10000" math="0" shadow="0">
      <root>
        <mxCell id="0" />
        <mxCell id="1" parent="0" />
        <mxCell id="Q-jp-RgFeVscWHWHAW9i-81" value="" style="rounded=0;whiteSpace=wrap;html=1;" vertex="1" parent="1">
          <mxGeometry x="2360" y="-50" width="1160" height="500" as="geometry" />
        </mxCell>
        <mxCell id="AdRxEW4dZARf76ZbknjQ-5" value="LZMContext(管理module, service, task)" style="swimlane;fontStyle=1;align=center;verticalAlign=top;childLayout=stackLayout;horizontal=1;startSize=26;horizontalStack=0;resizeParent=1;resizeParentMax=0;resizeLast=0;collapsible=1;marginBottom=0;" parent="1" vertex="1">
          <mxGeometry x="560" y="1050" width="490" height="294" as="geometry" />
        </mxCell>
        <mxCell id="AdRxEW4dZARf76ZbknjQ-6" value="_moduleClassesByName: map&lt;moduleName, moduleClass&gt;" style="text;strokeColor=none;fillColor=none;align=left;verticalAlign=top;spacingLeft=4;spacingRight=4;overflow=hidden;rotatable=0;points=[[0,0.5],[1,0.5]];portConstraint=eastwest;" parent="AdRxEW4dZARf76ZbknjQ-5" vertex="1">
          <mxGeometry y="26" width="490" height="26" as="geometry" />
        </mxCell>
        <mxCell id="AdRxEW4dZARf76ZbknjQ-16" value="_modulesByName: Map&lt;moduleName, modouleObject&gt;" style="text;strokeColor=none;fillColor=none;align=left;verticalAlign=top;spacingLeft=4;spacingRight=4;overflow=hidden;rotatable=0;points=[[0,0.5],[1,0.5]];portConstraint=eastwest;" parent="AdRxEW4dZARf76ZbknjQ-5" vertex="1">
          <mxGeometry y="52" width="490" height="26" as="geometry" />
        </mxCell>
        <mxCell id="Q-jp-RgFeVscWHWHAW9i-17" value="_serviceByName: Map&lt;serviceName, serviceObject&gt;" style="text;strokeColor=none;fillColor=none;align=left;verticalAlign=top;spacingLeft=4;spacingRight=4;overflow=hidden;rotatable=0;points=[[0,0.5],[1,0.5]];portConstraint=eastwest;" vertex="1" parent="AdRxEW4dZARf76ZbknjQ-5">
          <mxGeometry y="78" width="490" height="26" as="geometry" />
        </mxCell>
        <mxCell id="Q-jp-RgFeVscWHWHAW9i-16" value="_serviceClassByName: Map&lt;serviceName, serviceImpClass&gt;" style="text;strokeColor=none;fillColor=none;align=left;verticalAlign=top;spacingLeft=4;spacingRight=4;overflow=hidden;rotatable=0;points=[[0,0.5],[1,0.5]];portConstraint=eastwest;" vertex="1" parent="AdRxEW4dZARf76ZbknjQ-5">
          <mxGeometry y="104" width="490" height="26" as="geometry" />
        </mxCell>
        <mxCell id="AdRxEW4dZARf76ZbknjQ-7" value="" style="line;strokeWidth=1;fillColor=none;align=left;verticalAlign=middle;spacingTop=-1;spacingLeft=3;spacingRight=3;rotatable=0;labelPosition=right;points=[];portConstraint=eastwest;" parent="AdRxEW4dZARf76ZbknjQ-5" vertex="1">
          <mxGeometry y="130" width="490" height="8" as="geometry" />
        </mxCell>
        <mxCell id="AdRxEW4dZARf76ZbknjQ-8" value="- readModuleInSectionAndRegisteModule" style="text;strokeColor=none;fillColor=none;align=left;verticalAlign=top;spacingLeft=4;spacingRight=4;overflow=hidden;rotatable=0;points=[[0,0.5],[1,0.5]];portConstraint=eastwest;" parent="AdRxEW4dZARf76ZbknjQ-5" vertex="1">
          <mxGeometry y="138" width="490" height="26" as="geometry" />
        </mxCell>
        <mxCell id="AdRxEW4dZARf76ZbknjQ-12" value="- registerModule(Class)" style="text;strokeColor=none;fillColor=none;align=left;verticalAlign=top;spacingLeft=4;spacingRight=4;overflow=hidden;rotatable=0;points=[[0,0.5],[1,0.5]];portConstraint=eastwest;" parent="AdRxEW4dZARf76ZbknjQ-5" vertex="1">
          <mxGeometry y="164" width="490" height="26" as="geometry" />
        </mxCell>
        <mxCell id="AdRxEW4dZARf76ZbknjQ-11" value="- loadModules" style="text;strokeColor=none;fillColor=none;align=left;verticalAlign=top;spacingLeft=4;spacingRight=4;overflow=hidden;rotatable=0;points=[[0,0.5],[1,0.5]];portConstraint=eastwest;" parent="AdRxEW4dZARf76ZbknjQ-5" vertex="1">
          <mxGeometry y="190" width="490" height="26" as="geometry" />
        </mxCell>
        <mxCell id="AdRxEW4dZARf76ZbknjQ-14" value="- findModule(Class)" style="text;strokeColor=none;fillColor=none;align=left;verticalAlign=top;spacingLeft=4;spacingRight=4;overflow=hidden;rotatable=0;points=[[0,0.5],[1,0.5]];portConstraint=eastwest;" parent="AdRxEW4dZARf76ZbknjQ-5" vertex="1">
          <mxGeometry y="216" width="490" height="26" as="geometry" />
        </mxCell>
        <mxCell id="Q-jp-RgFeVscWHWHAW9i-14" value="- registerService(Protocol, Class)" style="text;strokeColor=none;fillColor=none;align=left;verticalAlign=top;spacingLeft=4;spacingRight=4;overflow=hidden;rotatable=0;points=[[0,0.5],[1,0.5]];portConstraint=eastwest;movable=1;resizable=1;deletable=1;editable=1;connectable=1;" vertex="1" parent="AdRxEW4dZARf76ZbknjQ-5">
          <mxGeometry y="242" width="490" height="26" as="geometry" />
        </mxCell>
        <mxCell id="AdRxEW4dZARf76ZbknjQ-15" value="- findService(Protocol)" style="text;strokeColor=none;fillColor=none;align=left;verticalAlign=top;spacingLeft=4;spacingRight=4;overflow=hidden;rotatable=0;points=[[0,0.5],[1,0.5]];portConstraint=eastwest;movable=1;resizable=1;deletable=1;editable=1;connectable=1;" parent="AdRxEW4dZARf76ZbknjQ-5" vertex="1">
          <mxGeometry y="268" width="490" height="26" as="geometry" />
        </mxCell>
        <mxCell id="AdRxEW4dZARf76ZbknjQ-17" value="" style="rounded=1;whiteSpace=wrap;html=1;" parent="1" vertex="1">
          <mxGeometry x="670" y="500" width="300" height="440" as="geometry" />
        </mxCell>
        <mxCell id="AdRxEW4dZARf76ZbknjQ-18" value="" style="endArrow=none;html=1;" parent="1" source="AdRxEW4dZARf76ZbknjQ-17" edge="1">
          <mxGeometry width="50" height="50" relative="1" as="geometry">
            <mxPoint x="710" y="550" as="sourcePoint" />
            <mxPoint x="760" y="500" as="targetPoint" />
          </mxGeometry>
        </mxCell>
        <mxCell id="AdRxEW4dZARf76ZbknjQ-22" value="启动" style="text;html=1;strokeColor=none;fillColor=none;align=center;verticalAlign=middle;whiteSpace=wrap;rounded=0;" parent="1" vertex="1">
          <mxGeometry x="715" y="530" width="210" height="20" as="geometry" />
        </mxCell>
        <mxCell id="AdRxEW4dZARf76ZbknjQ-23" value="" style="rounded=1;whiteSpace=wrap;html=1;" parent="1" vertex="1">
          <mxGeometry x="250" y="500" width="300" height="440" as="geometry" />
        </mxCell>
        <mxCell id="AdRxEW4dZARf76ZbknjQ-24" value="" style="endArrow=none;html=1;" parent="1" source="AdRxEW4dZARf76ZbknjQ-23" edge="1">
          <mxGeometry width="50" height="50" relative="1" as="geometry">
            <mxPoint x="290" y="550" as="sourcePoint" />
            <mxPoint x="340" y="500" as="targetPoint" />
          </mxGeometry>
        </mxCell>
        <mxCell id="AdRxEW4dZARf76ZbknjQ-25" value="编译阶段" style="text;html=1;strokeColor=none;fillColor=none;align=center;verticalAlign=middle;whiteSpace=wrap;rounded=0;" parent="1" vertex="1">
          <mxGeometry x="290" y="530" width="210" height="20" as="geometry" />
        </mxCell>
        <mxCell id="Q-jp-RgFeVscWHWHAW9i-1" value="声明Module&lt;br&gt;1.&amp;nbsp;&lt;span style=&quot;text-align: left&quot;&gt;使用__attribute属性(编译器属性)把moduleName写入section里(自定义一个sectionName)&lt;/span&gt;" style="text;html=1;strokeColor=none;fillColor=none;align=center;verticalAlign=middle;whiteSpace=wrap;rounded=0;" vertex="1" parent="1">
          <mxGeometry x="275" y="620" width="250" height="20" as="geometry" />
        </mxCell>
        <mxCell id="Q-jp-RgFeVscWHWHAW9i-2" value="" style="endArrow=none;html=1;" edge="1" parent="1">
          <mxGeometry width="50" height="50" relative="1" as="geometry">
            <mxPoint x="250" y="570" as="sourcePoint" />
            <mxPoint x="550" y="570" as="targetPoint" />
          </mxGeometry>
        </mxCell>
        <mxCell id="Q-jp-RgFeVscWHWHAW9i-3" value="注册Module的方式:&lt;br&gt;&lt;div style=&quot;text-align: left&quot;&gt;&lt;span&gt;1. 编译阶段, 使用__attribute属性(编译器属性)把moduleName写入section里(自定义一个sectionName),&lt;/span&gt;&lt;/div&gt;&lt;div style=&quot;text-align: left&quot;&gt;&lt;span&gt;2. 在启动阶段, 加载类的时候, 注册Module, 把moduleName写入内存.&lt;/span&gt;&lt;/div&gt;" style="text;html=1;strokeColor=none;fillColor=none;align=center;verticalAlign=middle;whiteSpace=wrap;rounded=0;" vertex="1" parent="1">
          <mxGeometry x="160" y="390" width="230" height="20" as="geometry" />
        </mxCell>
        <mxCell id="Q-jp-RgFeVscWHWHAW9i-4" value="" style="endArrow=none;html=1;" edge="1" parent="1">
          <mxGeometry width="50" height="50" relative="1" as="geometry">
            <mxPoint x="670" y="570" as="sourcePoint" />
            <mxPoint x="970" y="570" as="targetPoint" />
          </mxGeometry>
        </mxCell>
        <mxCell id="Q-jp-RgFeVscWHWHAW9i-5" value="初始化LZMContext:&lt;br&gt;&lt;div style=&quot;text-align: left&quot;&gt;&lt;span&gt;1. 获取在编译阶段声明的module, 注册module&lt;/span&gt;&lt;/div&gt;&lt;div style=&quot;text-align: left&quot;&gt;&lt;span&gt;2. 获取编译阶段声明的Service, 注册Service, 如果是全局的, 则直接创建Service对象.&lt;/span&gt;&lt;/div&gt;&lt;div style=&quot;text-align: left&quot;&gt;&lt;span&gt;2. 创建和初始化task执行的队列&lt;/span&gt;&lt;/div&gt;" style="text;html=1;strokeColor=none;fillColor=none;align=center;verticalAlign=middle;whiteSpace=wrap;rounded=0;" vertex="1" parent="1">
          <mxGeometry x="690" y="600" width="260" height="20" as="geometry" />
        </mxCell>
        <mxCell id="Q-jp-RgFeVscWHWHAW9i-9" value="&lt;p style=&quot;margin: 0px ; margin-top: 4px ; text-align: center&quot;&gt;&lt;i&gt;&amp;lt;&amp;lt;Protocol&amp;gt;&amp;gt;&lt;/i&gt;&lt;br&gt;&lt;b&gt;LZMModule&lt;/b&gt;&lt;/p&gt;&lt;hr size=&quot;1&quot;&gt;&lt;p style=&quot;margin: 0px ; margin-left: 4px&quot;&gt;- moduleDidInit(LZMContext)&lt;br&gt;+ loadAfterLaunch: bool&lt;/p&gt;" style="verticalAlign=top;align=left;overflow=fill;fontSize=12;fontFamily=Helvetica;html=1;" vertex="1" parent="1">
          <mxGeometry x="1530" y="1550" width="190" height="90" as="geometry" />
        </mxCell>
        <mxCell id="Q-jp-RgFeVscWHWHAW9i-12" value="加载Module&lt;br&gt;&lt;div style=&quot;text-align: left&quot;&gt;遍历上述所注册moduleClass, 创建module对象, 执行module初始化方法.&lt;/div&gt;&lt;div style=&quot;text-align: left&quot;&gt;&lt;br&gt;&lt;/div&gt;" style="text;html=1;strokeColor=none;fillColor=none;align=center;verticalAlign=middle;whiteSpace=wrap;rounded=0;" vertex="1" parent="1">
          <mxGeometry x="690" y="710" width="260" height="20" as="geometry" />
        </mxCell>
        <mxCell id="Q-jp-RgFeVscWHWHAW9i-13" value="声明Service&lt;br&gt;1.&amp;nbsp;&lt;span style=&quot;text-align: left&quot;&gt;使用__attribute属性(编译器属性)把ServiceName和ClassName写入section里(自定义一个sectionName)&lt;/span&gt;" style="text;html=1;strokeColor=none;fillColor=none;align=center;verticalAlign=middle;whiteSpace=wrap;rounded=0;" vertex="1" parent="1">
          <mxGeometry x="270" y="710" width="250" height="20" as="geometry" />
        </mxCell>
        <mxCell id="Q-jp-RgFeVscWHWHAW9i-15" value="&lt;p style=&quot;margin: 0px ; margin-top: 4px ; text-align: center&quot;&gt;&lt;i&gt;&amp;lt;&amp;lt;Protocol&amp;gt;&amp;gt;&lt;/i&gt;&lt;br&gt;&lt;b&gt;LZMService&lt;/b&gt;&lt;/p&gt;&lt;hr size=&quot;1&quot;&gt;&lt;p style=&quot;margin: 0px ; margin-left: 4px&quot;&gt;+ globalVisible: bool&lt;/p&gt;" style="verticalAlign=top;align=left;overflow=fill;fontSize=12;fontFamily=Helvetica;html=1;" vertex="1" parent="1">
          <mxGeometry x="1540" y="1791" width="190" height="90" as="geometry" />
        </mxCell>
        <mxCell id="Q-jp-RgFeVscWHWHAW9i-18" value="执行Task&lt;br&gt;&lt;div style=&quot;text-align: left&quot;&gt;根据配置文件里的TaskList, 遍历并生成一个个Task, 声明好task之间的依赖, 然后执行.&lt;/div&gt;" style="text;html=1;strokeColor=none;fillColor=none;align=center;verticalAlign=middle;whiteSpace=wrap;rounded=0;" vertex="1" parent="1">
          <mxGeometry x="690" y="780" width="260" height="20" as="geometry" />
        </mxCell>
        <mxCell id="Q-jp-RgFeVscWHWHAW9i-36" style="edgeStyle=orthogonalEdgeStyle;rounded=0;orthogonalLoop=1;jettySize=auto;html=1;dashed=1;strokeWidth=2;entryX=0.5;entryY=0;entryDx=0;entryDy=0;endArrow=block;endFill=0;exitX=0.999;exitY=0.158;exitDx=0;exitDy=0;exitPerimeter=0;" edge="1" parent="1" source="Q-jp-RgFeVscWHWHAW9i-27" target="Q-jp-RgFeVscWHWHAW9i-9">
          <mxGeometry relative="1" as="geometry">
            <mxPoint x="1600" y="1650" as="targetPoint" />
            <Array as="points">
              <mxPoint x="830" y="1496" />
              <mxPoint x="830" y="1490" />
              <mxPoint x="1625" y="1490" />
            </Array>
          </mxGeometry>
        </mxCell>
        <mxCell id="Q-jp-RgFeVscWHWHAW9i-23" value="LZMLauncher" style="swimlane;fontStyle=1;align=center;verticalAlign=top;childLayout=stackLayout;horizontal=1;startSize=26;horizontalStack=0;resizeParent=1;resizeParentMax=0;resizeLast=0;collapsible=1;marginBottom=0;" vertex="1" parent="1">
          <mxGeometry x="250" y="1440" width="400" height="112" as="geometry" />
        </mxCell>
        <mxCell id="Q-jp-RgFeVscWHWHAW9i-24" value="_tabBarController" style="text;strokeColor=none;fillColor=none;align=left;verticalAlign=top;spacingLeft=4;spacingRight=4;overflow=hidden;rotatable=0;points=[[0,0.5],[1,0.5]];portConstraint=eastwest;" vertex="1" parent="Q-jp-RgFeVscWHWHAW9i-23">
          <mxGeometry y="26" width="400" height="26" as="geometry" />
        </mxCell>
        <mxCell id="Q-jp-RgFeVscWHWHAW9i-27" value="_window" style="text;strokeColor=none;fillColor=none;align=left;verticalAlign=top;spacingLeft=4;spacingRight=4;overflow=hidden;rotatable=0;points=[[0,0.5],[1,0.5]];portConstraint=eastwest;" vertex="1" parent="Q-jp-RgFeVscWHWHAW9i-23">
          <mxGeometry y="52" width="400" height="26" as="geometry" />
        </mxCell>
        <mxCell id="Q-jp-RgFeVscWHWHAW9i-25" value="" style="line;strokeWidth=1;fillColor=none;align=left;verticalAlign=middle;spacingTop=-1;spacingLeft=3;spacingRight=3;rotatable=0;labelPosition=right;points=[];portConstraint=eastwest;" vertex="1" parent="Q-jp-RgFeVscWHWHAW9i-23">
          <mxGeometry y="78" width="400" height="8" as="geometry" />
        </mxCell>
        <mxCell id="Q-jp-RgFeVscWHWHAW9i-26" value="- moduleDidInit(Context)   //创建根Window" style="text;strokeColor=none;fillColor=none;align=left;verticalAlign=top;spacingLeft=4;spacingRight=4;overflow=hidden;rotatable=0;points=[[0,0.5],[1,0.5]];portConstraint=eastwest;" vertex="1" parent="Q-jp-RgFeVscWHWHAW9i-23">
          <mxGeometry y="86" width="400" height="26" as="geometry" />
        </mxCell>
        <mxCell id="Q-jp-RgFeVscWHWHAW9i-46" style="edgeStyle=orthogonalEdgeStyle;rounded=0;orthogonalLoop=1;jettySize=auto;html=1;entryX=0.5;entryY=1;entryDx=0;entryDy=0;startArrow=none;startFill=0;strokeWidth=2;endArrow=block;endFill=0;" edge="1" parent="1" source="Q-jp-RgFeVscWHWHAW9i-29" target="Q-jp-RgFeVscWHWHAW9i-45">
          <mxGeometry relative="1" as="geometry" />
        </mxCell>
        <mxCell id="Q-jp-RgFeVscWHWHAW9i-29" value="LZMTask: NSOperator" style="swimlane;fontStyle=1;align=center;verticalAlign=top;childLayout=stackLayout;horizontal=1;startSize=26;horizontalStack=0;resizeParent=1;resizeParentMax=0;resizeLast=0;collapsible=1;marginBottom=0;" vertex="1" parent="1">
          <mxGeometry x="1230" y="1050" width="420" height="138" as="geometry" />
        </mxCell>
        <mxCell id="Q-jp-RgFeVscWHWHAW9i-33" value="_state: enum" style="text;strokeColor=none;fillColor=none;align=left;verticalAlign=top;spacingLeft=4;spacingRight=4;overflow=hidden;rotatable=0;points=[[0,0.5],[1,0.5]];portConstraint=eastwest;" vertex="1" parent="Q-jp-RgFeVscWHWHAW9i-29">
          <mxGeometry y="26" width="420" height="26" as="geometry" />
        </mxCell>
        <mxCell id="Q-jp-RgFeVscWHWHAW9i-31" value="" style="line;strokeWidth=1;fillColor=none;align=left;verticalAlign=middle;spacingTop=-1;spacingLeft=3;spacingRight=3;rotatable=0;labelPosition=right;points=[];portConstraint=eastwest;" vertex="1" parent="Q-jp-RgFeVscWHWHAW9i-29">
          <mxGeometry y="52" width="420" height="8" as="geometry" />
        </mxCell>
        <mxCell id="Q-jp-RgFeVscWHWHAW9i-32" value="+ taskWithBlock(func): constructor" style="text;strokeColor=none;fillColor=none;align=left;verticalAlign=top;spacingLeft=4;spacingRight=4;overflow=hidden;rotatable=0;points=[[0,0.5],[1,0.5]];portConstraint=eastwest;" vertex="1" parent="Q-jp-RgFeVscWHWHAW9i-29">
          <mxGeometry y="60" width="420" height="26" as="geometry" />
        </mxCell>
        <mxCell id="Q-jp-RgFeVscWHWHAW9i-34" value="- excuteTask" style="text;strokeColor=none;fillColor=none;align=left;verticalAlign=top;spacingLeft=4;spacingRight=4;overflow=hidden;rotatable=0;points=[[0,0.5],[1,0.5]];portConstraint=eastwest;" vertex="1" parent="Q-jp-RgFeVscWHWHAW9i-29">
          <mxGeometry y="86" width="420" height="26" as="geometry" />
        </mxCell>
        <mxCell id="Q-jp-RgFeVscWHWHAW9i-35" value="- finishWithError(error)" style="text;strokeColor=none;fillColor=none;align=left;verticalAlign=top;spacingLeft=4;spacingRight=4;overflow=hidden;rotatable=0;points=[[0,0.5],[1,0.5]];portConstraint=eastwest;" vertex="1" parent="Q-jp-RgFeVscWHWHAW9i-29">
          <mxGeometry y="112" width="420" height="26" as="geometry" />
        </mxCell>
        <mxCell id="Q-jp-RgFeVscWHWHAW9i-37" value="LZMLauncherServiceIMP" style="swimlane;fontStyle=1;align=center;verticalAlign=top;childLayout=stackLayout;horizontal=1;startSize=26;horizontalStack=0;resizeParent=1;resizeParentMax=0;resizeLast=0;collapsible=1;marginBottom=0;" vertex="1" parent="1">
          <mxGeometry x="240" y="1780" width="400" height="86" as="geometry" />
        </mxCell>
        <mxCell id="Q-jp-RgFeVscWHWHAW9i-38" value="_tabBarController" style="text;strokeColor=none;fillColor=none;align=left;verticalAlign=top;spacingLeft=4;spacingRight=4;overflow=hidden;rotatable=0;points=[[0,0.5],[1,0.5]];portConstraint=eastwest;" vertex="1" parent="Q-jp-RgFeVscWHWHAW9i-37">
          <mxGeometry y="26" width="400" height="26" as="geometry" />
        </mxCell>
        <mxCell id="Q-jp-RgFeVscWHWHAW9i-40" value="" style="line;strokeWidth=1;fillColor=none;align=left;verticalAlign=middle;spacingTop=-1;spacingLeft=3;spacingRight=3;rotatable=0;labelPosition=right;points=[];portConstraint=eastwest;" vertex="1" parent="Q-jp-RgFeVscWHWHAW9i-37">
          <mxGeometry y="52" width="400" height="8" as="geometry" />
        </mxCell>
        <mxCell id="Q-jp-RgFeVscWHWHAW9i-41" value="- switchToTabIndex(int): void" style="text;strokeColor=none;fillColor=none;align=left;verticalAlign=top;spacingLeft=4;spacingRight=4;overflow=hidden;rotatable=0;points=[[0,0.5],[1,0.5]];portConstraint=eastwest;" vertex="1" parent="Q-jp-RgFeVscWHWHAW9i-37">
          <mxGeometry y="60" width="400" height="26" as="geometry" />
        </mxCell>
        <mxCell id="Q-jp-RgFeVscWHWHAW9i-44" style="edgeStyle=orthogonalEdgeStyle;rounded=0;orthogonalLoop=1;jettySize=auto;html=1;entryX=0;entryY=0.5;entryDx=0;entryDy=0;dashed=1;strokeWidth=2;startArrow=none;startFill=0;dashPattern=1 4;endArrow=oval;endFill=0;" edge="1" parent="1" source="Q-jp-RgFeVscWHWHAW9i-42" target="Q-jp-RgFeVscWHWHAW9i-15">
          <mxGeometry relative="1" as="geometry" />
        </mxCell>
        <mxCell id="Q-jp-RgFeVscWHWHAW9i-42" value="&lt;p style=&quot;margin: 0px ; margin-top: 4px ; text-align: center&quot;&gt;&lt;i&gt;&amp;lt;&amp;lt;Protocol&amp;gt;&amp;gt;&lt;/i&gt;&lt;br&gt;&lt;b&gt;LZMLauncherService&lt;/b&gt;&lt;/p&gt;&lt;hr size=&quot;1&quot;&gt;&lt;p style=&quot;margin: 0px ; margin-left: 4px&quot;&gt;- tabBarController: UITabBarController&lt;/p&gt;&lt;p style=&quot;margin: 0px ; margin-left: 4px&quot;&gt;- switchToTabIndex(int): void&lt;/p&gt;" style="verticalAlign=top;align=left;overflow=fill;fontSize=12;fontFamily=Helvetica;html=1;" vertex="1" parent="1">
          <mxGeometry x="1000" y="1791" width="310" height="90" as="geometry" />
        </mxCell>
        <mxCell id="Q-jp-RgFeVscWHWHAW9i-45" value="&lt;p style=&quot;margin: 0px ; margin-top: 4px ; text-align: center&quot;&gt;&lt;b&gt;NSOperator&lt;/b&gt;&lt;/p&gt;&lt;hr size=&quot;1&quot;&gt;&lt;div style=&quot;height: 2px&quot;&gt;&lt;/div&gt;" style="verticalAlign=top;align=left;overflow=fill;fontSize=12;fontFamily=Helvetica;html=1;" vertex="1" parent="1">
          <mxGeometry x="1360" y="900" width="140" height="60" as="geometry" />
        </mxCell>
        <mxCell id="Q-jp-RgFeVscWHWHAW9i-47" style="edgeStyle=orthogonalEdgeStyle;rounded=0;orthogonalLoop=1;jettySize=auto;html=1;exitX=1;exitY=0.5;exitDx=0;exitDy=0;entryX=0;entryY=0.5;entryDx=0;entryDy=0;dashed=1;dashPattern=1 4;startArrow=none;startFill=0;endArrow=block;endFill=0;strokeWidth=2;" edge="1" parent="1" target="Q-jp-RgFeVscWHWHAW9i-42">
          <mxGeometry relative="1" as="geometry">
            <mxPoint x="640" y="1845" as="sourcePoint" />
          </mxGeometry>
        </mxCell>
        <mxCell id="Q-jp-RgFeVscWHWHAW9i-63" style="edgeStyle=orthogonalEdgeStyle;rounded=0;orthogonalLoop=1;jettySize=auto;html=1;entryX=0;entryY=0.5;entryDx=0;entryDy=0;startArrow=none;startFill=0;endArrow=classic;endFill=1;strokeWidth=2;" edge="1" parent="1" source="Q-jp-RgFeVscWHWHAW9i-48" target="Q-jp-RgFeVscWHWHAW9i-58">
          <mxGeometry relative="1" as="geometry" />
        </mxCell>
        <mxCell id="Q-jp-RgFeVscWHWHAW9i-64" value="Text" style="edgeLabel;html=1;align=center;verticalAlign=middle;resizable=0;points=[];" vertex="1" connectable="0" parent="Q-jp-RgFeVscWHWHAW9i-63">
          <mxGeometry x="-0.1886" y="-1" relative="1" as="geometry">
            <mxPoint as="offset" />
          </mxGeometry>
        </mxCell>
        <mxCell id="Q-jp-RgFeVscWHWHAW9i-65" value="findService, 调用service(Protocol)方法" style="edgeLabel;html=1;align=center;verticalAlign=middle;resizable=0;points=[];" vertex="1" connectable="0" parent="Q-jp-RgFeVscWHWHAW9i-63">
          <mxGeometry x="0.0663" y="1" relative="1" as="geometry">
            <mxPoint as="offset" />
          </mxGeometry>
        </mxCell>
        <mxCell id="Q-jp-RgFeVscWHWHAW9i-48" value="" style="rounded=0;whiteSpace=wrap;html=1;" vertex="1" parent="1">
          <mxGeometry x="350" y="2330" width="140" height="70" as="geometry" />
        </mxCell>
        <mxCell id="Q-jp-RgFeVscWHWHAW9i-50" value="Context" style="text;html=1;strokeColor=none;fillColor=none;align=center;verticalAlign=middle;whiteSpace=wrap;rounded=0;" vertex="1" parent="1">
          <mxGeometry x="370" y="2355" width="100" height="20" as="geometry" />
        </mxCell>
        <mxCell id="Q-jp-RgFeVscWHWHAW9i-54" value="" style="rounded=0;whiteSpace=wrap;html=1;" vertex="1" parent="1">
          <mxGeometry x="610" y="2190" width="140" height="70" as="geometry" />
        </mxCell>
        <mxCell id="Q-jp-RgFeVscWHWHAW9i-55" value="Controller" style="text;html=1;strokeColor=none;fillColor=none;align=center;verticalAlign=middle;whiteSpace=wrap;rounded=0;" vertex="1" parent="1">
          <mxGeometry x="630" y="2215" width="100" height="20" as="geometry" />
        </mxCell>
        <mxCell id="Q-jp-RgFeVscWHWHAW9i-56" value="" style="rounded=0;whiteSpace=wrap;html=1;" vertex="1" parent="1">
          <mxGeometry x="610" y="2500" width="140" height="70" as="geometry" />
        </mxCell>
        <mxCell id="Q-jp-RgFeVscWHWHAW9i-57" value="Launcher" style="text;html=1;strokeColor=none;fillColor=none;align=center;verticalAlign=middle;whiteSpace=wrap;rounded=0;" vertex="1" parent="1">
          <mxGeometry x="630" y="2525" width="100" height="20" as="geometry" />
        </mxCell>
        <mxCell id="Q-jp-RgFeVscWHWHAW9i-69" style="edgeStyle=orthogonalEdgeStyle;rounded=0;orthogonalLoop=1;jettySize=auto;html=1;entryX=0.5;entryY=0;entryDx=0;entryDy=0;startArrow=none;startFill=0;endArrow=classic;endFill=1;strokeWidth=2;" edge="1" parent="1" source="Q-jp-RgFeVscWHWHAW9i-58" target="Q-jp-RgFeVscWHWHAW9i-48">
          <mxGeometry relative="1" as="geometry">
            <Array as="points">
              <mxPoint x="920" y="2310" />
              <mxPoint x="420" y="2310" />
            </Array>
          </mxGeometry>
        </mxCell>
        <mxCell id="Q-jp-RgFeVscWHWHAW9i-70" value="findModule, 调用module的TabBarVC" style="edgeLabel;html=1;align=center;verticalAlign=middle;resizable=0;points=[];" vertex="1" connectable="0" parent="Q-jp-RgFeVscWHWHAW9i-69">
          <mxGeometry x="-0.1312" y="-2" relative="1" as="geometry">
            <mxPoint as="offset" />
          </mxGeometry>
        </mxCell>
        <mxCell id="Q-jp-RgFeVscWHWHAW9i-58" value="" style="rounded=0;whiteSpace=wrap;html=1;" vertex="1" parent="1">
          <mxGeometry x="850" y="2330" width="140" height="70" as="geometry" />
        </mxCell>
        <mxCell id="Q-jp-RgFeVscWHWHAW9i-59" value="LauncherServiceIMP" style="text;html=1;strokeColor=none;fillColor=none;align=center;verticalAlign=middle;whiteSpace=wrap;rounded=0;" vertex="1" parent="1">
          <mxGeometry x="870" y="2355" width="100" height="20" as="geometry" />
        </mxCell>
        <mxCell id="Q-jp-RgFeVscWHWHAW9i-62" value="点击调到第二个tab" style="edgeStyle=orthogonalEdgeStyle;rounded=0;orthogonalLoop=1;jettySize=auto;html=1;entryX=0.5;entryY=0;entryDx=0;entryDy=0;startArrow=none;startFill=0;endArrow=classic;endFill=1;strokeWidth=2;" edge="1" parent="1" source="Q-jp-RgFeVscWHWHAW9i-60" target="Q-jp-RgFeVscWHWHAW9i-54">
          <mxGeometry relative="1" as="geometry" />
        </mxCell>
        <mxCell id="Q-jp-RgFeVscWHWHAW9i-60" value="" style="rounded=0;whiteSpace=wrap;html=1;" vertex="1" parent="1">
          <mxGeometry x="610" y="2000" width="140" height="70" as="geometry" />
        </mxCell>
        <mxCell id="Q-jp-RgFeVscWHWHAW9i-61" value="User" style="text;html=1;strokeColor=none;fillColor=none;align=center;verticalAlign=middle;whiteSpace=wrap;rounded=0;" vertex="1" parent="1">
          <mxGeometry x="630" y="2025" width="100" height="20" as="geometry" />
        </mxCell>
        <mxCell id="Q-jp-RgFeVscWHWHAW9i-72" value="" style="rounded=0;whiteSpace=wrap;html=1;" vertex="1" parent="1">
          <mxGeometry x="2360" y="550" width="1160" height="500" as="geometry" />
        </mxCell>
        <mxCell id="Q-jp-RgFeVscWHWHAW9i-73" value="Classname" style="swimlane;fontStyle=1;align=center;verticalAlign=top;childLayout=stackLayout;horizontal=1;startSize=26;horizontalStack=0;resizeParent=1;resizeParentMax=0;resizeLast=0;collapsible=1;marginBottom=0;" vertex="1" parent="1">
          <mxGeometry x="3020" y="850" width="160" height="86" as="geometry" />
        </mxCell>
        <mxCell id="Q-jp-RgFeVscWHWHAW9i-74" value="+ field: type" style="text;strokeColor=none;fillColor=none;align=left;verticalAlign=top;spacingLeft=4;spacingRight=4;overflow=hidden;rotatable=0;points=[[0,0.5],[1,0.5]];portConstraint=eastwest;" vertex="1" parent="Q-jp-RgFeVscWHWHAW9i-73">
          <mxGeometry y="26" width="160" height="26" as="geometry" />
        </mxCell>
        <mxCell id="Q-jp-RgFeVscWHWHAW9i-75" value="" style="line;strokeWidth=1;fillColor=none;align=left;verticalAlign=middle;spacingTop=-1;spacingLeft=3;spacingRight=3;rotatable=0;labelPosition=right;points=[];portConstraint=eastwest;" vertex="1" parent="Q-jp-RgFeVscWHWHAW9i-73">
          <mxGeometry y="52" width="160" height="8" as="geometry" />
        </mxCell>
        <mxCell id="Q-jp-RgFeVscWHWHAW9i-76" value="+ method(type): type" style="text;strokeColor=none;fillColor=none;align=left;verticalAlign=top;spacingLeft=4;spacingRight=4;overflow=hidden;rotatable=0;points=[[0,0.5],[1,0.5]];portConstraint=eastwest;" vertex="1" parent="Q-jp-RgFeVscWHWHAW9i-73">
          <mxGeometry y="60" width="160" height="26" as="geometry" />
        </mxCell>
        <mxCell id="Q-jp-RgFeVscWHWHAW9i-78" value="BASE_MODULE" style="text;html=1;strokeColor=none;fillColor=none;align=center;verticalAlign=middle;whiteSpace=wrap;rounded=0;fontSize=33;" vertex="1" parent="1">
          <mxGeometry x="2490" y="610" width="120" height="20" as="geometry" />
        </mxCell>
        <mxCell id="Q-jp-RgFeVscWHWHAW9i-80" value="&lt;p style=&quot;margin: 0px ; margin-top: 4px ; text-align: center&quot;&gt;&lt;i&gt;&amp;lt;&amp;lt;Interface&amp;gt;&amp;gt;&lt;/i&gt;&lt;br&gt;&lt;b&gt;Navigator&lt;/b&gt;&lt;/p&gt;&lt;hr size=&quot;1&quot;&gt;&lt;p style=&quot;margin: 0px ; margin-left: 4px&quot;&gt;_navigationController&lt;/p&gt;&lt;p style=&quot;margin: 0px ; margin-left: 4px&quot;&gt;_rootViewController&lt;/p&gt;&lt;hr size=&quot;1&quot;&gt;&lt;p style=&quot;margin: 0px ; margin-left: 4px&quot;&gt;- visibleViewController&lt;br&gt;- openRootController&lt;/p&gt;" style="verticalAlign=top;align=left;overflow=fill;fontSize=12;fontFamily=Helvetica;html=1;" vertex="1" parent="1">
          <mxGeometry x="2419" y="850" width="190" height="140" as="geometry" />
        </mxCell>
        <mxCell id="Q-jp-RgFeVscWHWHAW9i-91" style="edgeStyle=orthogonalEdgeStyle;rounded=0;orthogonalLoop=1;jettySize=auto;html=1;exitX=0;exitY=0;exitDx=0;exitDy=0;entryX=0;entryY=0.25;entryDx=0;entryDy=0;fontSize=12;startArrow=none;startFill=0;endArrow=classic;endFill=1;strokeWidth=2;" edge="1" parent="1" source="Q-jp-RgFeVscWHWHAW9i-82" target="Q-jp-RgFeVscWHWHAW9i-80">
          <mxGeometry relative="1" as="geometry">
            <Array as="points">
              <mxPoint x="2410" y="70" />
              <mxPoint x="2399" y="70" />
              <mxPoint x="2399" y="885" />
            </Array>
          </mxGeometry>
        </mxCell>
        <mxCell id="Q-jp-RgFeVscWHWHAW9i-82" value="Navigator" style="swimlane;fontStyle=1;align=center;verticalAlign=top;childLayout=stackLayout;horizontal=1;startSize=26;horizontalStack=0;resizeParent=1;resizeParentMax=0;resizeLast=0;collapsible=1;marginBottom=0;" vertex="1" parent="1">
          <mxGeometry x="2410" y="90" width="160" height="86" as="geometry" />
        </mxCell>
        <mxCell id="Q-jp-RgFeVscWHWHAW9i-83" value="+ field: type" style="text;strokeColor=none;fillColor=none;align=left;verticalAlign=top;spacingLeft=4;spacingRight=4;overflow=hidden;rotatable=0;points=[[0,0.5],[1,0.5]];portConstraint=eastwest;" vertex="1" parent="Q-jp-RgFeVscWHWHAW9i-82">
          <mxGeometry y="26" width="160" height="26" as="geometry" />
        </mxCell>
        <mxCell id="Q-jp-RgFeVscWHWHAW9i-84" value="" style="line;strokeWidth=1;fillColor=none;align=left;verticalAlign=middle;spacingTop=-1;spacingLeft=3;spacingRight=3;rotatable=0;labelPosition=right;points=[];portConstraint=eastwest;" vertex="1" parent="Q-jp-RgFeVscWHWHAW9i-82">
          <mxGeometry y="52" width="160" height="8" as="geometry" />
        </mxCell>
        <mxCell id="Q-jp-RgFeVscWHWHAW9i-85" value="+ method(type): type" style="text;strokeColor=none;fillColor=none;align=left;verticalAlign=top;spacingLeft=4;spacingRight=4;overflow=hidden;rotatable=0;points=[[0,0.5],[1,0.5]];portConstraint=eastwest;" vertex="1" parent="Q-jp-RgFeVscWHWHAW9i-82">
          <mxGeometry y="60" width="160" height="26" as="geometry" />
        </mxCell>
        <mxCell id="Q-jp-RgFeVscWHWHAW9i-86" value="Main_MODULE" style="text;html=1;strokeColor=none;fillColor=none;align=center;verticalAlign=middle;whiteSpace=wrap;rounded=0;fontSize=33;" vertex="1" parent="1">
          <mxGeometry x="2490" width="120" height="20" as="geometry" />
        </mxCell>
        <mxCell id="Q-jp-RgFeVscWHWHAW9i-92" value="&lt;p style=&quot;margin: 0px ; margin-top: 4px ; text-align: center&quot;&gt;&lt;i&gt;&amp;lt;&amp;lt;Interface&amp;gt;&amp;gt;&lt;/i&gt;&lt;br&gt;&lt;b&gt;AppConfig&lt;/b&gt;&lt;/p&gt;&lt;hr size=&quot;1&quot;&gt;&lt;p style=&quot;margin: 0px ; margin-left: 4px&quot;&gt;_baseUrl&lt;/p&gt;&lt;p style=&quot;margin: 0px ; margin-left: 4px&quot;&gt;_appkey&lt;/p&gt;&lt;p style=&quot;margin: 0px ; margin-left: 4px&quot;&gt;_somethingInServer&lt;/p&gt;&lt;p style=&quot;margin: 0px ; margin-left: 4px&quot;&gt;&lt;br&gt;&lt;/p&gt;&lt;hr size=&quot;1&quot;&gt;&lt;p style=&quot;margin: 0px ; margin-left: 4px&quot;&gt;- setupConfig&lt;/p&gt;" style="verticalAlign=top;align=left;overflow=fill;fontSize=12;fontFamily=Helvetica;html=1;" vertex="1" parent="1">
          <mxGeometry x="2730" y="850" width="190" height="140" as="geometry" />
        </mxCell>
        <mxCell id="Q-jp-RgFeVscWHWHAW9i-97" style="edgeStyle=orthogonalEdgeStyle;rounded=0;orthogonalLoop=1;jettySize=auto;html=1;fontSize=12;startArrow=none;startFill=0;endArrow=classic;endFill=1;strokeWidth=2;" edge="1" parent="1" source="Q-jp-RgFeVscWHWHAW9i-93" target="Q-jp-RgFeVscWHWHAW9i-92">
          <mxGeometry relative="1" as="geometry" />
        </mxCell>
        <mxCell id="Q-jp-RgFeVscWHWHAW9i-93" value="Config" style="swimlane;fontStyle=1;align=center;verticalAlign=top;childLayout=stackLayout;horizontal=1;startSize=26;horizontalStack=0;resizeParent=1;resizeParentMax=0;resizeLast=0;collapsible=1;marginBottom=0;" vertex="1" parent="1">
          <mxGeometry x="2730" y="90" width="160" height="86" as="geometry" />
        </mxCell>
        <mxCell id="Q-jp-RgFeVscWHWHAW9i-94" value="+ field: type" style="text;strokeColor=none;fillColor=none;align=left;verticalAlign=top;spacingLeft=4;spacingRight=4;overflow=hidden;rotatable=0;points=[[0,0.5],[1,0.5]];portConstraint=eastwest;" vertex="1" parent="Q-jp-RgFeVscWHWHAW9i-93">
          <mxGeometry y="26" width="160" height="26" as="geometry" />
        </mxCell>
        <mxCell id="Q-jp-RgFeVscWHWHAW9i-95" value="" style="line;strokeWidth=1;fillColor=none;align=left;verticalAlign=middle;spacingTop=-1;spacingLeft=3;spacingRight=3;rotatable=0;labelPosition=right;points=[];portConstraint=eastwest;" vertex="1" parent="Q-jp-RgFeVscWHWHAW9i-93">
          <mxGeometry y="52" width="160" height="8" as="geometry" />
        </mxCell>
        <mxCell id="Q-jp-RgFeVscWHWHAW9i-96" value="+ method(type): type" style="text;strokeColor=none;fillColor=none;align=left;verticalAlign=top;spacingLeft=4;spacingRight=4;overflow=hidden;rotatable=0;points=[[0,0.5],[1,0.5]];portConstraint=eastwest;" vertex="1" parent="Q-jp-RgFeVscWHWHAW9i-93">
          <mxGeometry y="60" width="160" height="26" as="geometry" />
        </mxCell>
        <mxCell id="Q-jp-RgFeVscWHWHAW9i-98" value="" style="rounded=0;whiteSpace=wrap;html=1;" vertex="1" parent="1">
          <mxGeometry x="2350" y="1160" width="1160" height="500" as="geometry" />
        </mxCell>
        <mxCell id="Q-jp-RgFeVscWHWHAW9i-99" value="CORE_MODULE" style="text;html=1;strokeColor=none;fillColor=none;align=center;verticalAlign=middle;whiteSpace=wrap;rounded=0;fontSize=33;" vertex="1" parent="1">
          <mxGeometry x="2460" y="1210" width="120" height="20" as="geometry" />
        </mxCell>
        <mxCell id="Q-jp-RgFeVscWHWHAW9i-100" value="ModuleManager" style="swimlane;fontStyle=1;align=center;verticalAlign=top;childLayout=stackLayout;horizontal=1;startSize=26;horizontalStack=0;resizeParent=1;resizeParentMax=0;resizeLast=0;collapsible=1;marginBottom=0;" vertex="1" parent="1">
          <mxGeometry x="2390" y="1290" width="440" height="190" as="geometry" />
        </mxCell>
        <mxCell id="Q-jp-RgFeVscWHWHAW9i-101" value="static registerModuleClasses: Map&lt;ModuleId, ModuleClass&gt;" style="text;strokeColor=none;fillColor=none;align=left;verticalAlign=top;spacingLeft=4;spacingRight=4;overflow=hidden;rotatable=0;points=[[0,0.5],[1,0.5]];portConstraint=eastwest;" vertex="1" parent="Q-jp-RgFeVscWHWHAW9i-100">
          <mxGeometry y="26" width="440" height="26" as="geometry" />
        </mxCell>
        <mxCell id="Q-jp-RgFeVscWHWHAW9i-104" value="static visibleModuleClasses: Map&lt;ModuleId, ModuleClass&gt;" style="text;strokeColor=none;fillColor=none;align=left;verticalAlign=top;spacingLeft=4;spacingRight=4;overflow=hidden;rotatable=0;points=[[0,0.5],[1,0.5]];portConstraint=eastwest;" vertex="1" parent="Q-jp-RgFeVscWHWHAW9i-100">
          <mxGeometry y="52" width="440" height="26" as="geometry" />
        </mxCell>
        <mxCell id="Q-jp-RgFeVscWHWHAW9i-105" value="_ativeModulesMap: Map&lt;ModuleId, ModuleObject&gt;" style="text;strokeColor=none;fillColor=none;align=left;verticalAlign=top;spacingLeft=4;spacingRight=4;overflow=hidden;rotatable=0;points=[[0,0.5],[1,0.5]];portConstraint=eastwest;" vertex="1" parent="Q-jp-RgFeVscWHWHAW9i-100">
          <mxGeometry y="78" width="440" height="26" as="geometry" />
        </mxCell>
        <mxCell id="Q-jp-RgFeVscWHWHAW9i-102" value="" style="line;strokeWidth=1;fillColor=none;align=left;verticalAlign=middle;spacingTop=-1;spacingLeft=3;spacingRight=3;rotatable=0;labelPosition=right;points=[];portConstraint=eastwest;" vertex="1" parent="Q-jp-RgFeVscWHWHAW9i-100">
          <mxGeometry y="104" width="440" height="8" as="geometry" />
        </mxCell>
        <mxCell id="Q-jp-RgFeVscWHWHAW9i-103" value="static registerModule(ModuleId, ModuleClass): void" style="text;strokeColor=none;fillColor=none;align=left;verticalAlign=top;spacingLeft=4;spacingRight=4;overflow=hidden;rotatable=0;points=[[0,0.5],[1,0.5]];portConstraint=eastwest;" vertex="1" parent="Q-jp-RgFeVscWHWHAW9i-100">
          <mxGeometry y="112" width="440" height="26" as="geometry" />
        </mxCell>
        <mxCell id="Q-jp-RgFeVscWHWHAW9i-116" value="- setupVisibleModuleClasses" style="text;strokeColor=none;fillColor=none;align=left;verticalAlign=top;spacingLeft=4;spacingRight=4;overflow=hidden;rotatable=0;points=[[0,0.5],[1,0.5]];portConstraint=eastwest;" vertex="1" parent="Q-jp-RgFeVscWHWHAW9i-100">
          <mxGeometry y="138" width="440" height="26" as="geometry" />
        </mxCell>
        <mxCell id="Q-jp-RgFeVscWHWHAW9i-115" value="- callMethod(method, moduleId, param, *error)" style="text;strokeColor=none;fillColor=none;align=left;verticalAlign=top;spacingLeft=4;spacingRight=4;overflow=hidden;rotatable=0;points=[[0,0.5],[1,0.5]];portConstraint=eastwest;" vertex="1" parent="Q-jp-RgFeVscWHWHAW9i-100">
          <mxGeometry y="164" width="440" height="26" as="geometry" />
        </mxCell>
        <mxCell id="Q-jp-RgFeVscWHWHAW9i-106" value="Module" style="swimlane;fontStyle=1;align=center;verticalAlign=top;childLayout=stackLayout;horizontal=1;startSize=26;horizontalStack=0;resizeParent=1;resizeParentMax=0;resizeLast=0;collapsible=1;marginBottom=0;" vertex="1" parent="1">
          <mxGeometry x="2960" y="1290" width="440" height="112" as="geometry" />
        </mxCell>
        <mxCell id="Q-jp-RgFeVscWHWHAW9i-107" value="static registerModuleClasses: Map&lt;ModuleId, ModuleClass&gt;" style="text;strokeColor=none;fillColor=none;align=left;verticalAlign=top;spacingLeft=4;spacingRight=4;overflow=hidden;rotatable=0;points=[[0,0.5],[1,0.5]];portConstraint=eastwest;" vertex="1" parent="Q-jp-RgFeVscWHWHAW9i-106">
          <mxGeometry y="26" width="440" height="26" as="geometry" />
        </mxCell>
        <mxCell id="Q-jp-RgFeVscWHWHAW9i-110" value="" style="line;strokeWidth=1;fillColor=none;align=left;verticalAlign=middle;spacingTop=-1;spacingLeft=3;spacingRight=3;rotatable=0;labelPosition=right;points=[];portConstraint=eastwest;" vertex="1" parent="Q-jp-RgFeVscWHWHAW9i-106">
          <mxGeometry y="52" width="440" height="8" as="geometry" />
        </mxCell>
        <mxCell id="Q-jp-RgFeVscWHWHAW9i-111" value="- callMethod(method, param, *error)" style="text;strokeColor=none;fillColor=none;align=left;verticalAlign=top;spacingLeft=4;spacingRight=4;overflow=hidden;rotatable=0;points=[[0,0.5],[1,0.5]];portConstraint=eastwest;" vertex="1" parent="Q-jp-RgFeVscWHWHAW9i-106">
          <mxGeometry y="60" width="440" height="26" as="geometry" />
        </mxCell>
        <mxCell id="Q-jp-RgFeVscWHWHAW9i-112" value="- rootViewController: UIViewController" style="text;strokeColor=none;fillColor=none;align=left;verticalAlign=top;spacingLeft=4;spacingRight=4;overflow=hidden;rotatable=0;points=[[0,0.5],[1,0.5]];portConstraint=eastwest;" vertex="1" parent="Q-jp-RgFeVscWHWHAW9i-106">
          <mxGeometry y="86" width="440" height="26" as="geometry" />
        </mxCell>
        <mxCell id="Q-jp-RgFeVscWHWHAW9i-117" value="" style="rounded=0;whiteSpace=wrap;html=1;" vertex="1" parent="1">
          <mxGeometry x="2340" y="1770" width="1160" height="290" as="geometry" />
        </mxCell>
        <mxCell id="Q-jp-RgFeVscWHWHAW9i-118" value="BUSINESS_MODULE" style="text;html=1;strokeColor=none;fillColor=none;align=center;verticalAlign=middle;whiteSpace=wrap;rounded=0;fontSize=33;" vertex="1" parent="1">
          <mxGeometry x="2470" y="1840" width="120" height="20" as="geometry" />
        </mxCell>
        <mxCell id="Q-jp-RgFeVscWHWHAW9i-123" value="`" style="edgeStyle=orthogonalEdgeStyle;rounded=0;orthogonalLoop=1;jettySize=auto;html=1;entryX=0.443;entryY=1.025;entryDx=0;entryDy=0;entryPerimeter=0;fontSize=12;startArrow=none;startFill=0;endArrow=classic;endFill=1;strokeWidth=2;" edge="1" parent="1" source="Q-jp-RgFeVscWHWHAW9i-119" target="Q-jp-RgFeVscWHWHAW9i-112">
          <mxGeometry relative="1" as="geometry">
            <Array as="points">
              <mxPoint x="3155" y="1790" />
              <mxPoint x="3155" y="1790" />
            </Array>
          </mxGeometry>
        </mxCell>
        <mxCell id="Q-jp-RgFeVscWHWHAW9i-119" value="BusinessModule" style="swimlane;fontStyle=1;align=center;verticalAlign=top;childLayout=stackLayout;horizontal=1;startSize=26;horizontalStack=0;resizeParent=1;resizeParentMax=0;resizeLast=0;collapsible=1;marginBottom=0;" vertex="1" parent="1">
          <mxGeometry x="3070" y="1914" width="160" height="86" as="geometry" />
        </mxCell>
        <mxCell id="Q-jp-RgFeVscWHWHAW9i-120" value="+ field: type" style="text;strokeColor=none;fillColor=none;align=left;verticalAlign=top;spacingLeft=4;spacingRight=4;overflow=hidden;rotatable=0;points=[[0,0.5],[1,0.5]];portConstraint=eastwest;" vertex="1" parent="Q-jp-RgFeVscWHWHAW9i-119">
          <mxGeometry y="26" width="160" height="26" as="geometry" />
        </mxCell>
        <mxCell id="Q-jp-RgFeVscWHWHAW9i-121" value="" style="line;strokeWidth=1;fillColor=none;align=left;verticalAlign=middle;spacingTop=-1;spacingLeft=3;spacingRight=3;rotatable=0;labelPosition=right;points=[];portConstraint=eastwest;" vertex="1" parent="Q-jp-RgFeVscWHWHAW9i-119">
          <mxGeometry y="52" width="160" height="8" as="geometry" />
        </mxCell>
        <mxCell id="Q-jp-RgFeVscWHWHAW9i-122" value="+ method1" style="text;strokeColor=none;fillColor=none;align=left;verticalAlign=top;spacingLeft=4;spacingRight=4;overflow=hidden;rotatable=0;points=[[0,0.5],[1,0.5]];portConstraint=eastwest;" vertex="1" parent="Q-jp-RgFeVscWHWHAW9i-119">
          <mxGeometry y="60" width="160" height="26" as="geometry" />
        </mxCell>
        <mxCell id="Q-jp-RgFeVscWHWHAW9i-128" style="edgeStyle=orthogonalEdgeStyle;rounded=0;orthogonalLoop=1;jettySize=auto;html=1;fontSize=12;startArrow=none;startFill=0;endArrow=classic;endFill=1;strokeWidth=2;" edge="1" parent="1" source="Q-jp-RgFeVscWHWHAW9i-124" target="Q-jp-RgFeVscWHWHAW9i-115">
          <mxGeometry relative="1" as="geometry" />
        </mxCell>
        <mxCell id="Q-jp-RgFeVscWHWHAW9i-129" value="分类(Category)" style="edgeLabel;html=1;align=center;verticalAlign=middle;resizable=0;points=[];fontSize=12;" vertex="1" connectable="0" parent="Q-jp-RgFeVscWHWHAW9i-128">
          <mxGeometry x="-0.0223" y="3" relative="1" as="geometry">
            <mxPoint as="offset" />
          </mxGeometry>
        </mxCell>
        <mxCell id="Q-jp-RgFeVscWHWHAW9i-124" value="ModuleManager+Business" style="swimlane;fontStyle=1;align=center;verticalAlign=top;childLayout=stackLayout;horizontal=1;startSize=26;horizontalStack=0;resizeParent=1;resizeParentMax=0;resizeLast=0;collapsible=1;marginBottom=0;" vertex="1" parent="1">
          <mxGeometry x="2690" y="1914" width="240" height="86" as="geometry" />
        </mxCell>
        <mxCell id="Q-jp-RgFeVscWHWHAW9i-125" value="+ field: type" style="text;strokeColor=none;fillColor=none;align=left;verticalAlign=top;spacingLeft=4;spacingRight=4;overflow=hidden;rotatable=0;points=[[0,0.5],[1,0.5]];portConstraint=eastwest;" vertex="1" parent="Q-jp-RgFeVscWHWHAW9i-124">
          <mxGeometry y="26" width="240" height="26" as="geometry" />
        </mxCell>
        <mxCell id="Q-jp-RgFeVscWHWHAW9i-126" value="" style="line;strokeWidth=1;fillColor=none;align=left;verticalAlign=middle;spacingTop=-1;spacingLeft=3;spacingRight=3;rotatable=0;labelPosition=right;points=[];portConstraint=eastwest;" vertex="1" parent="Q-jp-RgFeVscWHWHAW9i-124">
          <mxGeometry y="52" width="240" height="8" as="geometry" />
        </mxCell>
        <mxCell id="Q-jp-RgFeVscWHWHAW9i-127" value="+ method1" style="text;strokeColor=none;fillColor=none;align=left;verticalAlign=top;spacingLeft=4;spacingRight=4;overflow=hidden;rotatable=0;points=[[0,0.5],[1,0.5]];portConstraint=eastwest;" vertex="1" parent="Q-jp-RgFeVscWHWHAW9i-124">
          <mxGeometry y="60" width="240" height="26" as="geometry" />
        </mxCell>
        <mxCell id="Q-jp-RgFeVscWHWHAW9i-130" value="UGC" style="rounded=0;whiteSpace=wrap;html=1;" vertex="1" parent="1">
          <mxGeometry x="670" y="2760" width="140" height="70" as="geometry" />
        </mxCell>
        <mxCell id="Q-jp-RgFeVscWHWHAW9i-146" value="首页" style="rounded=0;whiteSpace=wrap;html=1;" vertex="1" parent="1">
          <mxGeometry x="670" y="2880" width="140" height="70" as="geometry" />
        </mxCell>
        <mxCell id="Q-jp-RgFeVscWHWHAW9i-147" value="商城" style="rounded=0;whiteSpace=wrap;html=1;" vertex="1" parent="1">
          <mxGeometry x="675" y="3000" width="140" height="70" as="geometry" />
        </mxCell>
        <mxCell id="Q-jp-RgFeVscWHWHAW9i-148" value="我的" style="rounded=0;whiteSpace=wrap;html=1;" vertex="1" parent="1">
          <mxGeometry x="675" y="3120" width="140" height="70" as="geometry" />
        </mxCell>
        <mxCell id="Q-jp-RgFeVscWHWHAW9i-149" value="门禁" style="rounded=0;whiteSpace=wrap;html=1;" vertex="1" parent="1">
          <mxGeometry x="1410" y="2770" width="140" height="70" as="geometry" />
        </mxCell>
        <mxCell id="Q-jp-RgFeVscWHWHAW9i-150" value="物业服务" style="rounded=0;whiteSpace=wrap;html=1;" vertex="1" parent="1">
          <mxGeometry x="1410" y="2890" width="140" height="70" as="geometry" />
        </mxCell>
        <mxCell id="Q-jp-RgFeVscWHWHAW9i-151" value="停车缴费" style="rounded=0;whiteSpace=wrap;html=1;" vertex="1" parent="1">
          <mxGeometry x="1415" y="3010" width="140" height="70" as="geometry" />
        </mxCell>
        <mxCell id="Q-jp-RgFeVscWHWHAW9i-152" value="快递" style="rounded=0;whiteSpace=wrap;html=1;" vertex="1" parent="1">
          <mxGeometry x="1415" y="3130" width="140" height="70" as="geometry" />
        </mxCell>
        <mxCell id="Q-jp-RgFeVscWHWHAW9i-153" value="会员" style="rounded=0;whiteSpace=wrap;html=1;" vertex="1" parent="1">
          <mxGeometry x="830" y="3270" width="140" height="70" as="geometry" />
        </mxCell>
        <mxCell id="Q-jp-RgFeVscWHWHAW9i-154" value="启动" style="rounded=0;whiteSpace=wrap;html=1;" vertex="1" parent="1">
          <mxGeometry x="1050" y="3270" width="140" height="70" as="geometry" />
        </mxCell>
        <mxCell id="Q-jp-RgFeVscWHWHAW9i-155" value="人脸" style="rounded=0;whiteSpace=wrap;html=1;" vertex="1" parent="1">
          <mxGeometry x="1270" y="3270" width="140" height="70" as="geometry" />
        </mxCell>
        <mxCell id="Q-jp-RgFeVscWHWHAW9i-156" value="登录" style="rounded=0;whiteSpace=wrap;html=1;" vertex="1" parent="1">
          <mxGeometry x="840" y="2650" width="140" height="70" as="geometry" />
        </mxCell>
        <mxCell id="Q-jp-RgFeVscWHWHAW9i-157" value="表单" style="rounded=0;whiteSpace=wrap;html=1;" vertex="1" parent="1">
          <mxGeometry x="1050" y="2650" width="140" height="70" as="geometry" />
        </mxCell>
        <mxCell id="Q-jp-RgFeVscWHWHAW9i-158" value="会议室" style="rounded=0;whiteSpace=wrap;html=1;" vertex="1" parent="1">
          <mxGeometry x="1260" y="2650" width="140" height="70" as="geometry" />
        </mxCell>
      </root>
    </mxGraphModel>
  </diagram>
</mxfile>
